<?xml version="1.0" encoding="UTF-8" standalone="no"?>
<!-- Created with Inkscape (http://www.inkscape.org/) -->

<svg
   xmlns:dc="http://purl.org/dc/elements/1.1/"
   xmlns:cc="http://creativecommons.org/ns#"
   xmlns:rdf="http://www.w3.org/1999/02/22-rdf-syntax-ns#"
   xmlns:svg="http://www.w3.org/2000/svg"
   xmlns="http://www.w3.org/2000/svg"
   xmlns:sodipodi="http://sodipodi.sourceforge.net/DTD/sodipodi-0.dtd"
   xmlns:inkscape="http://www.inkscape.org/namespaces/inkscape"
   width="50"
   height="50"
   id="svg2"
   version="1.1"
   inkscape:version="0.48.4 r9939"
   sodipodi:docname="search.svg">
  <defs
     id="defs4" />
  <sodipodi:namedview
     id="base"
     pagecolor="#ffffff"
     bordercolor="#666666"
     borderopacity="1.0"
     inkscape:pageopacity="0.0"
     inkscape:pageshadow="2"
     inkscape:zoom="12.855201"
     inkscape:cx="17.126144"
     inkscape:cy="22.468367"
     inkscape:document-units="px"
     inkscape:current-layer="layer1"
     showgrid="false"
     inkscape:window-width="1855"
     inkscape:window-height="1056"
     inkscape:window-x="65"
     inkscape:window-y="24"
     inkscape:window-maximized="1" />
  <metadata
     id="metadata7">
    <rdf:RDF>
      <cc:Work
         rdf:about="">
        <dc:format>image/svg+xml</dc:format>
        <dc:type
           rdf:resource="http://purl.org/dc/dcmitype/StillImage" />
        <dc:title></dc:title>
      </cc:Work>
    </rdf:RDF>
  </metadata>
  <g
     inkscape:label="Layer 1"
     inkscape:groupmode="layer"
     id="layer1"
     transform="translate(0,-1002.3622)">
    <g
       id="g3882"
       transform="matrix(0.73478489,-0.73522266,0.73478489,0.73522266,-740.49983,290.82864)">
      <g
         id="g3858">
        <path
           style="fill:#cccccc;fill-opacity:1;stroke:none"
           d="m 18.266138,1050.5426 c -0.242221,-0.1009 -0.533051,-0.2869 -0.646288,-0.4135 -0.203725,-0.2276 -0.205885,-0.2976 -0.205885,-6.6815 l 0,-6.4516 2.450371,0 2.45037,0 0,6.4516 c 0,6.3839 -0.0022,6.4539 -0.205885,6.6815 -0.113237,0.1266 -0.404067,0.3126 -0.646287,0.4135 -0.381716,0.1589 -0.594686,0.1832 -1.598198,0.1832 -1.003513,0 -1.216483,-0.025 -1.598198,-0.1832 z"
           id="path3856"
           inkscape:connector-curvature="0" />
        <rect
           style="fill:none;stroke:#000000;stroke-width:2;stroke-miterlimit:4;stroke-opacity:1;stroke-dasharray:none"
           id="rect3757"
           width="6.0365024"
           height="16"
           x="17"
           y="1035.3622"
           ry="2.3100305" />
      </g>
      <g
         id="g3878">
        <path
           style="fill:#cccccc;fill-opacity:1;stroke:none"
           d="m 7.2614806,1027.6251 c -1.4205716,-1.776 -2.5970495,-4.1419 -3.1332925,-6.3011 -0.7428626,-2.9912 -0.5612898,-6.4971 0.4877199,-9.4166 1.5255565,-4.2461 4.8912887,-7.7897 9.048777,-9.5274 6.364329,-2.66016 13.80034,-1.083 18.433681,3.9096 2.84953,3.0704 4.369063,6.8943 4.381364,11.0254 0.0041,1.4087 -0.07756,2.2181 -0.356583,3.5298 -0.733284,3.4471 -2.706304,6.7444 -5.365482,8.9664 -6.056199,5.0608 -14.667979,5.2269 -20.8558117,0.4024 -0.7540156,-0.5878 -2.0791309,-1.887 -2.6403768,-2.5885 z"
           id="path3766"
           inkscape:connector-curvature="0" />
        <path
           sodipodi:type="arc"
           style="fill:none;stroke:#000000;stroke-width:1.76377296;stroke-miterlimit:4;stroke-opacity:1;stroke-dasharray:none"
           id="path2987"
           sodipodi:cx="28.520351"
           sodipodi:cy="27.0077"
           sodipodi:rx="7.838284"
           sodipodi:ry="8.0858088"
           d="m 36.358635,27.0077 c 0,4.465669 -3.509319,8.085809 -7.838284,8.085809 -4.328964,0 -7.838284,-3.62014 -7.838284,-8.085809 0,-4.465669 3.50932,-8.085809 7.838284,-8.085809 4.328965,0 7.838284,3.62014 7.838284,8.085809 z"
           transform="matrix(2.296421,-4.8595591e-8,-4.7394563e-8,2.2126612,-45.494733,957.57009)" />
      </g>
    </g>
  </g>
</svg>
