<?xml version="1.0" encoding="UTF-8" standalone="no"?>
<!-- Created with Inkscape (http://www.inkscape.org/) -->

<svg
   xmlns:dc="http://purl.org/dc/elements/1.1/"
   xmlns:cc="http://creativecommons.org/ns#"
   xmlns:rdf="http://www.w3.org/1999/02/22-rdf-syntax-ns#"
   xmlns:svg="http://www.w3.org/2000/svg"
   xmlns="http://www.w3.org/2000/svg"
   xmlns:sodipodi="http://sodipodi.sourceforge.net/DTD/sodipodi-0.dtd"
   xmlns:inkscape="http://www.inkscape.org/namespaces/inkscape"
   id="svg2"
   version="1.1"
   inkscape:version="0.48.4 r9939"
   width="48"
   height="48"
   xml:space="preserve"
   sodipodi:docname="yp-icon.svg"><metadata
     id="metadata8"><rdf:RDF><cc:Work
         rdf:about=""><dc:format>image/svg+xml</dc:format><dc:type
           rdf:resource="http://purl.org/dc/dcmitype/StillImage" /><dc:title /></cc:Work></rdf:RDF></metadata><defs
     id="defs6" /><sodipodi:namedview
     pagecolor="#ffffff"
     bordercolor="#666666"
     borderopacity="1"
     objecttolerance="10"
     gridtolerance="10"
     guidetolerance="10"
     inkscape:pageopacity="0"
     inkscape:pageshadow="2"
     inkscape:window-width="1855"
     inkscape:window-height="1056"
     id="namedview4"
     showgrid="false"
     inkscape:zoom="9.2921963"
     inkscape:cx="34.796986"
     inkscape:cy="18.556681"
     inkscape:window-x="1985"
     inkscape:window-y="24"
     inkscape:window-maximized="1"
     inkscape:current-layer="g10" /><g
     id="g10"
     inkscape:groupmode="layer"
     inkscape:label="ink_ext_XXXXXX"
     transform="matrix(1.25,0,0,-1.25,0,48.000012)"><g
       id="g12"
       transform="matrix(0.0182716,0,0,0.0182716,-14.94444,-10.543846)"><path
         d="m 905.473,905.441 1847.43,0 0,189.141 -1847.43,0 0,-189.141 z"
         style="fill:#fee807;fill-opacity:1;fill-rule:nonzero;stroke:none"
         id="path14"
         inkscape:connector-curvature="0" /><path
         d="m 2831.96,2326.57 0,-61.88 -8.15,0 1.13,51.88 -19.54,-51.88 -6.39,0 -19.2,51.1 0.88,-51.1 -8.07,0 0,61.88 10.6,0 19.02,-50.76 19.12,50.76 10.6,0 z m -95.82,-33.32 c -8.95,1.86 -22.08,4.84 -22.08,17.64 0,6.13 3.31,9.98 5.69,12 5.51,4.72 12.28,5.25 16.56,5.25 4.39,0 11.05,-0.43 16.66,-4.55 6.15,-4.47 7.38,-10.78 7.97,-14.56 l -8.32,-0.53 c -0.1,1.93 -0.35,6.84 -5.01,10.25 -3.15,2.29 -7.09,2.98 -11.02,2.98 -7.44,0 -14.01,-3.05 -14.01,-9.71 0,-6.84 6.82,-8.42 12.18,-9.65 l 6.82,-1.75 c 4.73,-1.14 7.26,-1.67 9.74,-2.72 9.3,-3.85 10.68,-11.31 10.68,-15.42 0,-5.78 -2.36,-11.22 -7.89,-14.99 -5.97,-4.02 -13.06,-4.38 -16.82,-4.38 -5.62,0 -24.8,0.89 -26.21,21.29 l 8.85,1.15 c 0.09,-2.38 0.37,-7.79 5.01,-11.92 3.48,-3.06 8.14,-4.12 12.7,-4.12 8.74,0 15.41,4.28 15.41,12.36 0,7.19 -5.69,9.12 -11.73,10.35 l -5.18,1.03 z M 2534.2,1892.77 c -1.7,124.7 -58.83,261.44 -215.94,261.44 -157.21,0 -214.29,-136.74 -216.07,-261.44 1.78,-124.68 58.86,-261.45 216.07,-261.45 157.11,0 214.24,136.77 215.94,261.45 z m -633.57,432.3 208.4,0 0,-73.51 3.47,0 c 63.16,58.05 154.47,93.89 256.93,93.89 218.77,0 383.47,-203.24 383.47,-452.68 0,-229.57 -135.33,-452.81 -407.63,-452.81 -109.17,0 -197.57,38.47 -236.24,85.83 l 0,-341.95 -208.4,0 0,1141.23 z M 1511,1383.51 c -56.56,-158.67 -131.04,-210.15 -281.27,-210.15 -51.33,0 -102.58,10.08 -148.48,28.42 l 0,186.24 c 32.75,-13.25 82.26,-26.74 131.92,-26.74 66.65,0 94.84,33.88 94.84,77.08 0,16.96 -6.24,34.55 -19.89,69.34 -13.46,34.9 -320.128,817.37 -320.128,817.37 l 227.368,0 221.46,-656.82 2.82,0 196.63,656.82 217.64,0 L 1511,1383.51"
         style="fill:#231f20;fill-opacity:1;fill-rule:nonzero;stroke:none"
         id="path16"
         inkscape:connector-curvature="0" /></g></g></svg>