<?xml version="1.0" encoding="UTF-8" standalone="no"?>
<!-- Created with Inkscape (http://www.inkscape.org/) -->

<svg
   xmlns:dc="http://purl.org/dc/elements/1.1/"
   xmlns:cc="http://creativecommons.org/ns#"
   xmlns:rdf="http://www.w3.org/1999/02/22-rdf-syntax-ns#"
   xmlns:svg="http://www.w3.org/2000/svg"
   xmlns="http://www.w3.org/2000/svg"
   xmlns:sodipodi="http://sodipodi.sourceforge.net/DTD/sodipodi-0.dtd"
   xmlns:inkscape="http://www.inkscape.org/namespaces/inkscape"
   id="svg2"
   version="1.1"
   inkscape:version="0.48.4 r9939"
   width="529.8375"
   height="168.475"
   xml:space="preserve"
   sodipodi:docname="yp_lkp_hz_2cls_pos.eps"><metadata
     id="metadata8"><rdf:RDF><cc:Work
         rdf:about=""><dc:format>image/svg+xml</dc:format><dc:type
           rdf:resource="http://purl.org/dc/dcmitype/StillImage" /><dc:title></dc:title></cc:Work></rdf:RDF></metadata><defs
     id="defs6" /><sodipodi:namedview
     pagecolor="#ffffff"
     bordercolor="#666666"
     borderopacity="1"
     objecttolerance="10"
     gridtolerance="10"
     guidetolerance="10"
     inkscape:pageopacity="0"
     inkscape:pageshadow="2"
     inkscape:window-width="640"
     inkscape:window-height="480"
     id="namedview4"
     showgrid="false"
     inkscape:zoom="0.68134095"
     inkscape:cx="264.91876"
     inkscape:cy="84.237503"
     inkscape:window-x="65"
     inkscape:window-y="24"
     inkscape:window-maximized="0"
     inkscape:current-layer="g10" /><g
     id="g10"
     inkscape:groupmode="layer"
     inkscape:label="ink_ext_XXXXXX"
     transform="matrix(1.25,0,0,-1.25,0,168.475)"><g
       id="g12"
       transform="scale(0.1,0.1)"><path
         d="m 0,0 1347.72,0 0,1347.76 L 0,1347.76 0,0 z"
         style="fill:#231f20;fill-opacity:1;fill-rule:nonzero;stroke:none"
         id="path14" /><path
         d="m 280.613,373.098 781.766,0 0,80.0586 -781.766,0 0,-80.0586 z"
         style="fill:#fadb05;fill-opacity:1;fill-rule:nonzero;stroke:none"
         id="path16" /><path
         d="m 969.852,790.93 c -0.743,52.75 -24.903,110.66 -91.422,110.66 -66.516,0 -90.649,-57.91 -91.399,-110.66 0.75,-52.754 24.883,-110.617 91.399,-110.617 66.519,0 90.679,57.863 91.422,110.617 z m -268.125,182.922 88.203,0 0,-31.063 1.449,0 c 26.734,24.547 65.367,39.719 108.738,39.719 92.598,0 162.263,-86.031 162.263,-191.578 0,-97.157 -57.22,-191.621 -172.509,-191.621 -46.172,0 -83.601,16.316 -99.941,36.308 l 0,-144.707 -88.203,0 0,482.942 z M 536.824,575.449 c -23.926,-67.156 -55.437,-88.926 -119.011,-88.926 -21.711,0 -43.418,4.258 -62.801,12.012 l 0,78.828 c 13.843,-5.664 34.785,-11.328 55.769,-11.328 28.231,0 40.164,14.317 40.164,32.637 0,7.16 -2.644,14.609 -8.418,29.269 -5.711,14.832 -135.457,345.911 -135.457,345.911 l 96.211,0 93.699,-277.942 1.196,0 83.203,277.942 92.137,0 -136.692,-398.403"
         style="fill:#ffffff;fill-opacity:1;fill-rule:nonzero;stroke:none"
         id="path18" /><path
         d="m 1732.17,596.543 c -6.3,-12.578 -9.72,-19.988 -21.12,-32.52 -9.09,-9.668 -33.03,-34.726 -87.75,-34.726 -87.77,0 -124.78,70.656 -124.78,140.75 0,90.586 55.26,144.187 129.92,144.187 76.33,0 98.57,-54.199 103.73,-68.386 l -31.36,-7.414 c -14.8,35.324 -49,45.589 -73.51,45.589 -52.43,0 -92.33,-40.476 -92.33,-112.273 0,-42.141 15.38,-112.832 89.48,-112.832 27.91,0 55.84,10.82 72.95,45.547 l 34.77,-7.922"
         style="fill:#231f20;fill-opacity:1;fill-rule:nonzero;stroke:none"
         id="path20" /><path
         d="m 1942.98,679.719 -17.1,-4.008 c -37.59,-10.227 -52.97,-14.231 -67.24,-18.238 -30.77,-8.528 -64.94,-18.789 -64.94,-52.414 0,-21.641 15.96,-44.989 54.13,-44.989 25.66,0 54.72,11.922 72.37,29.649 21.1,21.054 22.21,42.703 22.78,70.008 l 0,19.992 z m 72.95,-143.645 c -41.01,0 -70.09,3.496 -72.95,45.09 l 0,5.066 c -1.12,-2.265 -1.68,-3.964 -2.28,-5.671 -15.93,-33.067 -55.28,-50.149 -94.59,-50.149 -67.24,0 -85.46,45.637 -85.46,74.055 0,62.723 64.37,77.555 149.89,97.496 l 32.44,7.367 0,13.68 c 0,19.387 0,62.719 -66.07,62.719 -66.73,0 -70.69,-37.622 -71.24,-66.125 l -37.07,6.257 c 2.31,13.684 5.18,30.813 15.98,46.75 19.37,30.805 54.12,42.184 91.19,42.184 33.04,0 83.16,-8.566 95.74,-53.055 3.41,-13.082 3.41,-25.605 3.41,-52.41 l 0,-87.734 c 0,-47.891 0.56,-59.27 41.01,-58.672 l 0,-26.848"
         style="fill:#231f20;fill-opacity:1;fill-rule:nonzero;stroke:none"
         id="path22" /><path
         d="m 2262.12,536.074 -33.58,0 0,140.785 c 0,52.965 0,68.348 -10.29,83.176 -6.86,9.719 -22.78,23.438 -53.01,23.438 -30.75,0 -49.02,-12.016 -63.24,-30.813 -17.13,-22.836 -17.13,-40.476 -17.13,-97.445 l 0,-119.141 -33.61,0 0,271.301 33.61,0 0,-48.449 c 9.14,27.359 36.51,54.668 84.94,54.668 14.79,0 50.7,-1.703 74.07,-32.465 17.68,-23.352 18.24,-45.551 18.24,-104.27 l 0,-140.785"
         style="fill:#231f20;fill-opacity:1;fill-rule:nonzero;stroke:none"
         id="path24" /><path
         d="m 2641.04,753.813 c -10.2,14.234 -30.74,29.105 -60.4,29.105 -53.56,0 -82.04,-47.938 -82.04,-110.617 0,-40.992 12.52,-110.531 80.94,-110.531 78.04,0 78.63,82.625 79.21,107.675 0.58,37.625 -4.58,66.133 -17.71,84.368 z m 49.6,-217.739 -33.06,0 0,49.043 c -10.82,-31.914 -42.7,-55.262 -83.18,-55.262 -63.84,0 -112.25,55.262 -112.25,142.446 0,87.734 52.41,141.293 117.39,141.293 40.43,0 70.07,-22.754 78.04,-49.512 l 0,174.359 33.06,0 0,-402.367"
         style="fill:#231f20;fill-opacity:1;fill-rule:nonzero;stroke:none"
         id="path26" /><path
         d="m 2871.86,785.727 c -23.94,0 -47.29,-9.711 -62.67,-27.95 -23.38,-27.355 -25.66,-67.793 -25.66,-90.039 0,-77.504 39.91,-108.82 86.64,-108.82 59.82,0 87.75,47.293 88.3,110.527 0,15.422 1.17,116.282 -86.61,116.282 z m -1.69,-256.43 c -79.22,0 -122.53,62.637 -122.53,139.043 0,70.644 35.89,145.894 123.65,145.894 86.05,0 122.55,-70.687 123.12,-140.781 0.58,-82.621 -47.31,-144.156 -124.24,-144.156"
         style="fill:#231f20;fill-opacity:1;fill-rule:nonzero;stroke:none"
         id="path28" /><path
         d="m 3249.14,593.684 c 0,-25.645 9.07,-33.067 22.2,-33.067 11.99,0 25.6,7.969 37.59,17.051 l 0,-33.535 c -13.65,-9.16 -26.75,-13.125 -43.3,-13.125 -49.03,0 -49.03,27.351 -49.03,79.168 l 0,169.25 -56.96,0 0,28.504 56.96,0 0,115.683 32.54,0 0,-115.683 59.79,0 0,-28.504 -59.79,0 0,-185.742"
         style="fill:#231f20;fill-opacity:1;fill-rule:nonzero;stroke:none"
         id="path30" /><path
         d="m 3553.99,536.074 -33.62,0 0,147.649 c 0,6.816 -0.58,40.433 -1.12,42.695 -2.88,31.359 -18.84,56.5 -62.73,56.5 -30.19,0 -64.89,-13.762 -75.81,-59.91 -3.91,-17.09 -3.91,-33.024 -3.91,-69.5 l 0,-117.434 -33.65,0 0,402.367 33.65,0 0,-173.843 c 16.49,33.617 50.1,48.996 84.3,48.996 40.43,0 72.36,-19.899 84.93,-51.258 7.37,-19.387 7.37,-43.293 7.96,-72.949 l 0,-153.313"
         style="fill:#231f20;fill-opacity:1;fill-rule:nonzero;stroke:none"
         id="path32" /><path
         d="m 3788.22,679.719 -17.11,-4.008 c -37.62,-10.227 -52.98,-14.231 -67.23,-18.238 -30.78,-8.528 -65,-18.789 -65,-52.414 0,-21.641 15.99,-44.989 54.17,-44.989 25.61,0 54.69,11.922 72.31,29.649 21.11,21.054 22.25,42.703 22.86,70.008 l 0,19.992 z m 72.92,-143.645 c -41.05,0 -70.09,3.496 -72.92,45.09 l 0,5.066 c -1.17,-2.265 -1.75,-3.964 -2.32,-5.671 -15.96,-33.067 -55.25,-50.149 -94.55,-50.149 -67.26,0 -85.52,45.637 -85.52,74.055 0,62.723 64.44,77.555 149.86,97.496 l 32.53,7.367 0,13.68 c 0,19.387 0,62.719 -66.13,62.719 -66.71,0 -70.66,-37.622 -71.22,-66.125 l -37.07,6.257 c 2.32,13.684 5.17,30.813 15.98,46.75 19.38,30.805 54.11,42.184 91.18,42.184 33.02,0 83.17,-8.566 95.75,-53.055 3.38,-13.082 3.38,-25.605 3.38,-52.41 l 0,-87.734 c 0,-47.891 0.58,-59.27 41.05,-58.672 l 0,-26.848"
         style="fill:#231f20;fill-opacity:1;fill-rule:nonzero;stroke:none"
         id="path34" /><path
         d="m 3946.04,593.684 c 0,-25.645 9.13,-33.067 22.25,-33.067 11.95,0 25.61,7.969 37.56,17.051 l 0,-33.535 c -13.63,-9.16 -26.74,-13.125 -43.29,-13.125 -49,0 -49,27.351 -49,79.168 l 0,169.25 -56.99,0 0,28.504 56.99,0 0,115.683 32.48,0 0,-115.683 59.81,0 0,-28.504 -59.81,0 0,-185.742"
         style="fill:#231f20;fill-opacity:1;fill-rule:nonzero;stroke:none"
         id="path36" /><path
         d="m 4042.9,536.074 44.9805,0 0,66.1328 -44.9805,0 0,-66.1328 z"
         style="fill:#231f20;fill-opacity:1;fill-rule:nonzero;stroke:none"
         id="path38" /><path
         d="m 4150,885.684 13.73,0 c 6.66,0 19.99,-0.207 19.99,12.91 0,3.539 -1.45,8.746 -6.66,11.035 -3.33,1.457 -5.41,1.457 -16.45,1.457 l -10.61,0 0,-25.402 z m 13.53,38.308 c 9.57,0 16.03,-0.207 21.86,-2.289 9.99,-3.539 14.99,-12.699 14.99,-21.652 0,-11.867 -7.29,-19.156 -19.16,-22.278 7.5,-3.332 11.25,-6.871 13.33,-19.574 2.08,-14.152 2.91,-19.355 7.08,-27.687 l -18.95,0 c -0.83,1.457 -2.29,4.789 -3.75,12.91 -0.41,2.082 -1.87,12.078 -2.29,14.363 -2.49,13.324 -8.95,14.367 -21.02,14.574 l -5.83,0 0,-41.847 -16.66,0 0,93.48 30.4,0 z m 1.25,20.196 c -38.11,0 -67.67,-30.395 -67.67,-67.665 0,-37.679 30.4,-67.246 67.46,-67.246 37.89,0 67.24,29.77 67.45,67.039 0.21,37.059 -28.73,67.872 -67.24,67.872 z m -0.42,-141.575 c -38.52,0 -73.91,30.192 -73.91,73.91 0,42.891 33.94,74.329 73.91,74.329 43.1,0 74.53,-33.938 74.33,-74.536 -0.21,-41.015 -32.48,-73.703 -74.33,-73.703"
         style="fill:#231f20;fill-opacity:1;fill-rule:nonzero;stroke:none"
         id="path40" /></g></g></svg>